#Comment line ignore any data following # character 
#Hierarchical Translation and Rotation (.htr) file 
[Header]	
#Header keywords are followed by a single value 
FileType HTR		#Single word string
DataType HTRS		#Translation followed by rotation and scale data
FileVersion 1		#integer
NumSegments 84		#integer
NumFrames 2		#integer
DataFrameRate 30		#integer, data frame rate in this file
EulerRotationOrder ZYX
CalibrationUnits mm
RotationUnits Degrees
GlobalAxisofGravity Y
BoneLengthAxis Y
ScaleFactor 1.00
[SegmentNames&Hierarchy]
#CHILD	PARENT
MASTER GLOBAL
root MASTER
chest root
L_mid_tent01 root
R_mid_tent01 root
spine01 root
Bip01_Neck chest
L_humerus chest
R_humerus chest
weapon_bone chest
Bip01_Head Bip01_Neck
eye_left_bone Bip01_Head
eye_right_bone Bip01_Head
L_forearm L_humerus
L_front_hand L_forearm
L_weapon_bone L_forearm
L_front_hand01_01 L_front_hand
L_front_hand02_01 L_front_hand
L_front_hand03_01 L_front_hand
L_front_hand01_02 L_front_hand01_01
L_front_hand02_02 L_front_hand02_01
L_front_hand03_02 L_front_hand03_01
R_forearm R_humerus
R_front_hand R_forearm
R_weapon_bone R_forearm
R_front_hand01_01 R_front_hand
R_front_hand02_01 R_front_hand
R_front_hand03_01 R_front_hand
R_front_hand01_02 R_front_hand01_01
R_front_hand02_02 R_front_hand02_01
R_front_hand03_02 R_front_hand03_01
null_rope01_connect L_mid_tent01
Rope1_Seg01 null_rope01_connect
Rope1_Seg02 Rope1_Seg01
Rope1_Seg03 Rope1_Seg02
Rope1_Seg04 Rope1_Seg03
Rope1_Seg05 Rope1_Seg04
Rope1_Seg06 Rope1_Seg05
Rope1_Seg07 Rope1_Seg06
Rope1_Seg09 Rope1_Seg07
L_mid_hand01 Rope1_Seg09
L_mid_hand02 Rope1_Seg09
L_mid_hand03 Rope1_Seg09
null_rope02_connect R_mid_tent01
Rope2_Seg01 null_rope02_connect
Rope2_Seg02 Rope2_Seg01
Rope2_Seg03 Rope2_Seg02
Rope2_Seg04 Rope2_Seg03
Rope2_Seg05 Rope2_Seg04
Rope2_Seg06 Rope2_Seg05
Rope2_Seg07 Rope2_Seg06
Rope2_Seg09 Rope2_Seg07
R_mid_hand01 Rope2_Seg09
R_mid_hand02 Rope2_Seg09
R_mid_hand03 Rope2_Seg09
spine02 spine01
spine03 spine02
pelvis spine03
null_rope03_connect pelvis
null_rope04_connect pelvis
Rope3_Seg01 null_rope03_connect
Rope3_Seg02 Rope3_Seg01
Rope3_Seg03 Rope3_Seg02
Rope3_Seg04 Rope3_Seg03
Rope3_Seg05 Rope3_Seg04
Rope3_Seg06 Rope3_Seg05
Rope3_Seg07 Rope3_Seg06
Rope3_Seg08 Rope3_Seg07
Rope3_Seg09 Rope3_Seg08
R_rear_hand01 Rope3_Seg09
R_rear_hand02 Rope3_Seg09
R_rear_hand03 Rope3_Seg09
Rope4_Seg01 null_rope04_connect
Rope4_Seg02 Rope4_Seg01
Rope4_Seg03 Rope4_Seg02
Rope4_Seg04 Rope4_Seg03
Rope4_Seg05 Rope4_Seg04
Rope4_Seg06 Rope4_Seg05
Rope4_Seg07 Rope4_Seg06
Rope4_Seg08 Rope4_Seg07
Rope4_Seg09 Rope4_Seg08
L_rear_hand01 Rope4_Seg09
L_rear_hand02 Rope4_Seg09
L_rear_hand03 Rope4_Seg09
[BasePosition]
#SegmentName Tx, Ty, Tz, Rx, Ry, Rz, BoneLength
MASTER 0.000000 0.000000 0.000000 -90.000000 0.000000 0.000000 10.000000 
root 0.000000 0.000000 0.000000 0.000000 0.000000 0.000000 10.000000 
chest 0.000000 0.000000 0.000000 0.000000 0.000000 0.000000 10.000000 
L_mid_tent01 0.000000 0.000000 0.000000 0.000000 0.000000 0.000000 10.000000 
R_mid_tent01 0.000000 0.000000 0.000000 0.000000 0.000000 0.000000 10.000000 
spine01 0.000000 0.000000 0.000000 0.000000 0.000000 0.000000 10.000000 
Bip01_Neck 0.000000 0.000000 0.000000 0.000000 0.000000 0.000000 10.000000 
L_humerus 0.000000 0.000000 0.000000 0.000000 0.000000 0.000000 10.000000 
R_humerus 0.000000 0.000000 0.000000 0.000000 0.000000 0.000000 10.000000 
weapon_bone 0.000000 0.000000 0.000000 0.000000 0.000000 0.000000 10.000000 
Bip01_Head 0.000000 0.000000 0.000000 0.000000 0.000000 0.000000 10.000000 
eye_left_bone 0.000000 0.000000 0.000000 0.000000 0.000000 0.000000 10.000000 
eye_right_bone 0.000000 0.000000 0.000000 0.000000 0.000000 0.000000 10.000000 
L_forearm 0.000000 0.000000 0.000000 0.000000 0.000000 0.000000 10.000000 
L_front_hand 0.000000 0.000000 0.000000 0.000000 0.000000 0.000000 10.000000 
L_weapon_bone 0.000000 0.000000 0.000000 0.000000 0.000000 0.000000 10.000000 
L_front_hand01_01 0.000000 0.000000 0.000000 0.000000 0.000000 0.000000 10.000000 
L_front_hand02_01 0.000000 0.000000 0.000000 0.000000 0.000000 0.000000 10.000000 
L_front_hand03_01 0.000000 0.000000 0.000000 0.000000 0.000000 0.000000 10.000000 
L_front_hand01_02 0.000000 0.000000 0.000000 0.000000 0.000000 0.000000 10.000000 
L_front_hand02_02 0.000000 0.000000 0.000000 0.000000 0.000000 0.000000 10.000000 
L_front_hand03_02 0.000000 0.000000 0.000000 0.000000 0.000000 0.000000 10.000000 
R_forearm 0.000000 0.000000 0.000000 0.000000 0.000000 0.000000 10.000000 
R_front_hand 0.000000 0.000000 0.000000 0.000000 0.000000 0.000000 10.000000 
R_weapon_bone 0.000000 0.000000 0.000000 0.000000 0.000000 0.000000 10.000000 
R_front_hand01_01 0.000000 0.000000 0.000000 0.000000 0.000000 0.000000 10.000000 
R_front_hand02_01 0.000000 0.000000 0.000000 0.000000 0.000000 0.000000 10.000000 
R_front_hand03_01 0.000000 0.000000 0.000000 0.000000 0.000000 0.000000 10.000000 
R_front_hand01_02 0.000000 0.000000 0.000000 0.000000 0.000000 0.000000 10.000000 
R_front_hand02_02 0.000000 0.000000 0.000000 0.000000 0.000000 0.000000 10.000000 
R_front_hand03_02 0.000000 0.000000 0.000000 0.000000 0.000000 0.000000 10.000000 
null_rope01_connect 0.000000 0.000000 0.000000 0.000000 0.000000 0.000000 10.000000 
Rope1_Seg01 0.000000 0.000000 0.000000 0.000000 0.000000 0.000000 10.000000 
Rope1_Seg02 0.000000 0.000000 0.000000 0.000000 0.000000 0.000000 10.000000 
Rope1_Seg03 0.000000 0.000000 0.000000 0.000000 0.000000 0.000000 10.000000 
Rope1_Seg04 0.000000 0.000000 0.000000 0.000000 0.000000 0.000000 10.000000 
Rope1_Seg05 0.000000 0.000000 0.000000 0.000000 0.000000 0.000000 10.000000 
Rope1_Seg06 0.000000 0.000000 0.000000 0.000000 0.000000 0.000000 10.000000 
Rope1_Seg07 0.000000 0.000000 0.000000 0.000000 0.000000 0.000000 10.000000 
Rope1_Seg09 0.000000 0.000000 0.000000 0.000000 0.000000 0.000000 10.000000 
L_mid_hand01 0.000000 0.000000 0.000000 0.000000 0.000000 0.000000 10.000000 
L_mid_hand02 0.000000 0.000000 0.000000 0.000000 0.000000 0.000000 10.000000 
L_mid_hand03 0.000000 0.000000 0.000000 0.000000 0.000000 0.000000 10.000000 
null_rope02_connect 0.000000 0.000000 0.000000 0.000000 0.000000 0.000000 10.000000 
Rope2_Seg01 0.000000 0.000000 0.000000 0.000000 0.000000 0.000000 10.000000 
Rope2_Seg02 0.000000 0.000000 0.000000 0.000000 0.000000 0.000000 10.000000 
Rope2_Seg03 0.000000 0.000000 0.000000 0.000000 0.000000 0.000000 10.000000 
Rope2_Seg04 0.000000 0.000000 0.000000 0.000000 0.000000 0.000000 10.000000 
Rope2_Seg05 0.000000 0.000000 0.000000 0.000000 0.000000 0.000000 10.000000 
Rope2_Seg06 0.000000 0.000000 0.000000 0.000000 0.000000 0.000000 10.000000 
Rope2_Seg07 0.000000 0.000000 0.000000 0.000000 0.000000 0.000000 10.000000 
Rope2_Seg09 0.000000 0.000000 0.000000 0.000000 0.000000 0.000000 10.000000 
R_mid_hand01 0.000000 0.000000 0.000000 0.000000 0.000000 0.000000 10.000000 
R_mid_hand02 0.000000 0.000000 0.000000 0.000000 0.000000 0.000000 10.000000 
R_mid_hand03 0.000000 0.000000 0.000000 0.000000 0.000000 0.000000 10.000000 
spine02 0.000000 0.000000 0.000000 0.000000 0.000000 0.000000 10.000000 
spine03 0.000000 0.000000 0.000000 0.000000 0.000000 0.000000 10.000000 
pelvis 0.000000 0.000000 0.000000 0.000000 0.000000 0.000000 10.000000 
null_rope03_connect 0.000000 0.000000 0.000000 0.000000 0.000000 0.000000 10.000000 
null_rope04_connect 0.000000 0.000000 0.000000 0.000000 0.000000 0.000000 10.000000 
Rope3_Seg01 0.000000 0.000000 0.000000 0.000000 0.000000 0.000000 10.000000 
Rope3_Seg02 0.000000 0.000000 0.000000 0.000000 0.000000 0.000000 10.000000 
Rope3_Seg03 0.000000 0.000000 0.000000 0.000000 0.000000 0.000000 10.000000 
Rope3_Seg04 0.000000 0.000000 0.000000 0.000000 0.000000 0.000000 10.000000 
Rope3_Seg05 0.000000 0.000000 0.000000 0.000000 0.000000 0.000000 10.000000 
Rope3_Seg06 0.000000 0.000000 0.000000 0.000000 0.000000 0.000000 10.000000 
Rope3_Seg07 0.000000 0.000000 0.000000 0.000000 0.000000 0.000000 10.000000 
Rope3_Seg08 0.000000 0.000000 0.000000 0.000000 0.000000 0.000000 10.000000 
Rope3_Seg09 0.000000 0.000000 0.000000 0.000000 0.000000 0.000000 10.000000 
R_rear_hand01 0.000000 0.000000 0.000000 0.000000 0.000000 0.000000 10.000000 
R_rear_hand02 0.000000 0.000000 0.000000 0.000000 0.000000 0.000000 10.000000 
R_rear_hand03 0.000000 0.000000 0.000000 0.000000 0.000000 0.000000 10.000000 
Rope4_Seg01 0.000000 0.000000 0.000000 0.000000 0.000000 0.000000 10.000000 
Rope4_Seg02 0.000000 0.000000 0.000000 0.000000 0.000000 0.000000 10.000000 
Rope4_Seg03 0.000000 0.000000 0.000000 0.000000 0.000000 0.000000 10.000000 
Rope4_Seg04 0.000000 0.000000 0.000000 0.000000 0.000000 0.000000 10.000000 
Rope4_Seg05 0.000000 0.000000 0.000000 0.000000 0.000000 0.000000 10.000000 
Rope4_Seg06 0.000000 0.000000 0.000000 0.000000 0.000000 0.000000 10.000000 
Rope4_Seg07 0.000000 0.000000 0.000000 0.000000 0.000000 0.000000 10.000000 
Rope4_Seg08 0.000000 0.000000 0.000000 0.000000 0.000000 0.000000 10.000000 
Rope4_Seg09 0.000000 0.000000 0.000000 0.000000 0.000000 0.000000 10.000000 
L_rear_hand01 0.000000 0.000000 0.000000 0.000000 0.000000 0.000000 10.000000 
L_rear_hand02 0.000000 0.000000 0.000000 0.000000 0.000000 0.000000 10.000000 
L_rear_hand03 0.000000 0.000000 0.000000 0.000000 0.000000 0.000000 10.000000 
#Beginning of Data. Separated by tabs
#Fr	Tx	Ty	Tz	Rx	Ry	Rz	SF
[MASTER]
25 -0.000475 3067.685303 5797.990723 0.001660 0.001660 0.001660 6559.526367
26 -0.000504 3263.069336 5688.159180 0.001660 0.001660 0.001660 6557.649902
[root]
25 89.450417 3.386145 932.160278 -104.355965 -22.260777 -91.374077 936.448425
26 78.675919 -7.788242 719.114502 -105.395828 -22.380650 -91.156281 723.447449
[chest]
25 -84.512650 -34.090519 0.000000 9.090137 4.896704 -155.844742 91.129311
26 -84.512650 -34.090519 0.000000 9.215148 4.836023 -158.950211 91.129311
[L_mid_tent01]
25 27.299118 22.179306 -249.918701 -1.713770 24.033907 67.405052 252.381699
26 27.299122 22.179316 -249.918701 -1.615467 24.933157 67.443977 252.381699
[R_mid_tent01]
25 23.228794 24.509907 226.238495 172.909622 -24.001696 58.168987 228.744751
26 23.228794 24.509907 226.238495 173.209198 -23.709154 57.326939 228.744751
[spine01]
25 -0.361383 -0.195265 0.000000 0.001957 0.001296 22.960537 0.410763
26 -0.361383 -0.195265 0.000000 0.001957 0.001296 22.944387 0.410763
[Bip01_Neck]
25 165.484543 71.581718 0.000119 176.643677 -1.657967 43.431915 180.302734
26 165.484543 71.581718 0.000119 176.643677 -1.657967 43.431911 180.302734
[L_humerus]
25 -13.983130 -135.272980 -120.471481 96.536064 81.998741 -173.123978 181.680161
26 -13.983130 -135.272980 -120.471481 98.159203 82.003113 -171.446472 181.680161
[R_humerus]
25 -13.983309 -135.273102 125.287651 -169.365234 -73.316879 -95.802139 184.909012
26 -13.983309 -135.273102 125.287651 -170.476395 -71.495827 -94.613472 184.909012
[weapon_bone]
25 235.964890 -300.705902 0.000000 0.000000 -89.951546 -128.212341 382.234833
26 235.964890 -300.705902 0.000000 0.000000 -89.951546 -128.212341 382.234833
[Bip01_Head]
25 213.643784 185.160660 18.941031 4.440121 -1.431086 -43.901863 283.349457
26 213.610229 185.252686 17.751141 4.438948 -1.362265 -43.898827 283.307251
[eye_left_bone]
25 -24.626970 125.451866 -64.772606 0.000000 -90.000000 -99.840431 143.318359
26 -24.626970 125.451866 -64.772606 0.000000 -90.000000 -99.840431 143.318359
[eye_right_bone]
25 -24.626970 125.451866 64.327362 0.000000 -89.965736 80.156380 143.117676
26 -24.626970 125.451866 64.327362 0.000000 -89.965736 80.156380 143.117676
[L_forearm]
25 322.776093 0.000000 -0.000119 0.000164 -0.002341 -98.034225 322.776093
26 322.776093 0.000000 -0.000119 0.000171 -0.002341 -98.338165 322.776093
[L_front_hand]
25 241.149185 -0.042021 -3.300071 -175.769775 -1.837324 -27.424896 241.171753
26 241.149185 -0.042021 -3.300071 -175.581284 -1.837316 -27.424564 241.171753
[L_weapon_bone]
25 156.183838 0.000000 0.000000 0.000014 0.000007 0.000001 156.183838
26 156.183838 0.000000 0.000000 0.000014 0.000007 0.000001 156.183838
[L_front_hand01_01]
25 86.095154 20.947098 -0.655860 -0.351864 -0.488251 73.756912 88.609184
26 86.095154 20.947098 -0.655860 -0.359433 -0.482613 74.612564 88.609184
[L_front_hand02_01]
25 86.935165 -11.437475 24.513514 151.937775 -59.151119 -58.507748 91.046425
26 86.935165 -11.437475 24.513514 153.214310 -59.547077 -59.995972 91.046425
[L_front_hand03_01]
25 86.637497 -14.123976 -20.424902 -151.626480 57.374607 -59.999702 90.126129
26 86.637497 -14.123976 -20.424902 -152.821930 57.770206 -61.413532 90.126129
[L_front_hand01_02]
25 71.020905 -0.000179 0.000030 0.000334 -0.002323 -106.342621 71.020905
26 71.020905 -0.000179 0.000030 0.000334 -0.002323 -106.379204 71.020905
[L_front_hand02_02]
25 71.020927 -0.000119 0.000060 0.000334 -0.002323 -106.342621 71.020927
26 71.020927 -0.000119 0.000060 0.000334 -0.002323 -106.379204 71.020927
[L_front_hand03_02]
25 71.020905 -0.000060 0.000060 0.000334 -0.002323 -106.342621 71.020905
26 71.020905 -0.000060 0.000060 0.000334 -0.002323 -106.379204 71.020905
[R_forearm]
25 322.776428 -0.000060 0.000030 0.212507 0.020393 -96.590996 322.776428
26 322.776428 -0.000060 0.000030 0.212453 0.020933 -96.882462 322.776428
[R_front_hand]
25 238.847015 -0.006795 2.210259 13.944469 -10.644003 -26.315529 238.857239
26 238.847015 -0.006795 2.210259 15.036572 -10.643271 -26.315908 238.857239
[R_weapon_bone]
25 155.664093 0.002503 -0.000030 0.003487 0.001180 -90.988930 155.664078
26 155.664093 0.002503 -0.000030 0.003487 0.001180 -90.988930 155.664078
[R_front_hand01_01]
25 87.624611 14.231146 22.918642 -154.633499 -59.950619 61.746044 91.683487
26 87.624611 14.231146 22.918642 -154.633453 -59.950615 61.745998 91.683487
[R_front_hand02_01]
25 89.356956 14.367283 -19.491137 154.602661 58.302849 63.744389 92.579636
26 89.356956 14.367283 -19.491137 154.602615 58.302849 63.744328 92.579636
[R_front_hand03_01]
25 87.286232 -22.307278 -0.143439 0.162155 -0.423168 -75.767921 90.091743
26 87.286232 -22.307278 -0.143439 0.162155 -0.423168 -75.767876 90.091743
[R_front_hand01_02]
25 71.020905 0.000060 0.000119 0.002323 -0.000334 106.381714 71.020905
26 71.020905 0.000060 0.000119 0.002323 -0.000334 106.381233 71.020905
[R_front_hand02_02]
25 71.020844 -0.000030 -0.000119 0.002323 -0.000334 106.381714 71.020836
26 71.020844 -0.000030 -0.000119 0.002323 -0.000334 106.381233 71.020836
[R_front_hand03_02]
25 71.020905 0.000000 0.000030 0.002323 -0.000334 106.381714 71.020905
26 71.020905 0.000000 0.000030 0.002323 -0.000334 106.381233 71.020905
[null_rope01_connect]
25 328.732483 0.000000 -0.000238 -144.238205 -51.238808 -170.660004 328.732483
26 328.732483 0.000000 -0.000238 -144.282303 -49.483387 -170.352325 328.732483
[Rope1_Seg01]
25 -0.000030 0.000022 0.000086 58.434708 -21.412764 -128.171036 0.000094
26 -0.000029 0.000021 0.000083 65.354012 -35.413452 -136.628220 0.000091
[Rope1_Seg02]
25 139.999863 -0.000179 0.000000 34.415352 -7.745918 -28.578556 139.999863
26 139.999863 -0.000179 0.000000 10.968966 -7.693882 -15.583772 139.999863
[Rope1_Seg03]
25 139.999924 0.000060 -0.000060 45.880280 -33.195663 -27.881475 139.999924
26 139.999924 0.000060 -0.000060 33.309288 -23.064875 -33.428123 139.999924
[Rope1_Seg04]
25 139.999924 -0.000060 -0.000119 8.068115 -19.901585 -2.176168 139.999924
26 139.999924 -0.000060 -0.000119 16.571945 -27.077892 -13.752413 139.999924
[Rope1_Seg05]
25 139.999832 0.000119 -0.000060 10.918830 -30.344233 -13.572890 139.999832
26 139.999832 0.000119 -0.000060 7.844684 -24.174700 -9.645726 139.999832
[Rope1_Seg06]
25 139.999954 0.000119 -0.000060 1.966164 -28.772873 -8.541797 139.999954
26 139.999954 0.000119 -0.000060 4.399263 -37.685001 -13.691326 139.999954
[Rope1_Seg07]
25 139.999985 0.000060 0.000000 -1.537204 -11.190986 -2.506821 139.999985
26 139.999985 0.000060 0.000000 -2.675019 -15.814618 -4.582832 139.999985
[Rope1_Seg09]
25 121.602913 0.000119 -0.000089 -89.793175 -1.359789 0.847147 121.602913
26 121.602913 0.000119 -0.000089 -89.793175 -1.359789 0.847147 121.602913
[L_mid_hand01]
25 103.859421 1.038730 8.195221 121.913727 -62.028774 -29.342213 104.187431
26 103.859421 1.038730 8.195221 124.908318 -64.325752 -32.698227 104.187431
[L_mid_hand02]
25 105.572853 -4.139662 -10.864139 -162.798126 41.730766 -64.459190 106.211075
26 105.572853 -4.139662 -10.864139 -165.192184 42.484806 -68.028931 106.211075
[L_mid_hand03]
25 104.641464 17.579376 -3.913581 -8.147992 16.962017 67.754333 106.179977
26 104.641464 17.579376 -3.913581 -7.308150 17.330343 70.609535 106.179977
[null_rope02_connect]
25 328.732849 0.000179 -0.000119 -74.588013 72.611961 52.223667 328.732849
26 328.732849 0.000179 -0.000119 -70.284157 72.681686 55.807720 328.732849
[Rope2_Seg01]
25 0.000055 0.000086 0.000000 -79.340050 28.848335 -12.772106 0.000102
26 0.000055 0.000083 0.000000 -74.562523 35.663734 5.219021 0.000100
[Rope2_Seg02]
25 139.999741 -0.000060 -0.000119 -17.301302 -4.774535 17.081186 139.999756
26 139.999741 -0.000060 -0.000119 -7.762745 -3.784868 11.814458 139.999756
[Rope2_Seg03]
25 140.000107 0.000030 0.000000 -10.758406 1.680408 11.324042 140.000107
26 140.000107 0.000030 0.000000 -8.508731 1.778901 14.081253 140.000107
[Rope2_Seg04]
25 139.999802 0.000000 -0.000060 1.923349 -13.646042 2.636284 139.999802
26 139.999802 0.000000 -0.000060 0.178355 -14.167349 4.515942 139.999802
[Rope2_Seg05]
25 139.999985 -0.000060 0.000119 5.014782 -36.364372 -3.131186 139.999985
26 139.999985 -0.000060 0.000119 3.253360 -26.926331 -7.527122 139.999985
[Rope2_Seg06]
25 139.999893 -0.000030 -0.000119 -1.800030 -19.436501 0.646193 139.999893
26 139.999893 -0.000030 -0.000119 -1.057171 -10.956209 -1.601241 139.999893
[Rope2_Seg07]
25 139.999893 0.000060 -0.000060 -1.770029 -9.011770 0.195734 139.999893
26 139.999893 0.000060 -0.000060 -1.044576 -5.815185 -0.851560 139.999893
[Rope2_Seg09]
25 121.338966 0.000089 -0.000060 33.793236 -1.359788 -0.847141 121.338966
26 121.338966 0.000089 -0.000060 33.793236 -1.359788 -0.847141 121.338966
[R_mid_hand01]
25 104.680779 11.144459 -10.335981 -32.351292 36.833485 46.151878 105.778534
26 104.680779 11.144459 -10.335981 -29.839296 38.782566 50.244781 105.778534
[R_mid_hand02]
25 104.070427 2.443552 8.231699 67.067337 -50.463928 18.609619 104.424065
26 104.070427 2.443552 8.231699 65.096054 -53.911869 21.097593 104.424065
[R_mid_hand03]
25 106.028137 -11.221827 -5.996406 -171.852570 13.596703 -55.941753 106.788818
26 106.028137 -11.221827 -5.996406 -172.771393 14.103966 -59.790901 106.788818
[spine02]
25 129.756927 0.001550 0.000119 -0.799805 -3.979988 3.543665 129.756927
26 129.756927 0.001550 0.000119 -0.770536 -3.985715 3.126791 129.756927
[spine03]
25 78.613991 0.081521 -4.898987 1.184123 4.106361 6.226116 78.766525
26 78.613991 0.081510 -4.898987 1.200733 4.100760 6.486860 78.766525
[pelvis]
25 169.435242 0.051022 0.000000 0.007834 -0.191093 -6.663952 169.435257
26 169.435242 0.051022 0.000000 0.006934 -0.191127 -6.124027 169.435257
[null_rope03_connect]
25 -1.257226 -2.466202 137.391083 -152.959625 -74.996117 -120.937355 137.418976
26 -1.257226 -2.466202 137.391083 -153.794434 -74.086945 -120.325233 137.418976
[null_rope04_connect]
25 -1.259640 -2.480268 -137.844437 -152.959625 -74.996117 -120.937355 137.872513
26 -1.259640 -2.480268 -137.844437 -153.794434 -74.086945 -120.325233 137.872513
[Rope3_Seg01]
25 0.000000 0.000000 0.000000 -146.772949 -37.314548 -55.397823 0.000000
26 0.000000 0.000000 0.000000 -147.873535 -33.221832 -49.496849 0.000000
[Rope3_Seg02]
25 139.999924 -0.000119 0.000060 11.729585 -20.071136 -8.470262 139.999924
26 139.999924 -0.000119 0.000060 11.198562 -17.145329 -3.535955 139.999924
[Rope3_Seg03]
25 139.999924 -0.000119 0.000119 18.293455 -17.913378 3.866219 139.999924
26 139.999924 -0.000119 0.000119 16.729385 -16.936213 6.876929 139.999924
[Rope3_Seg04]
25 139.999924 0.000119 0.000000 13.702887 -12.187790 1.221994 139.999924
26 139.999924 0.000119 0.000000 17.914253 -17.520605 3.268703 139.999924
[Rope3_Seg05]
25 139.999924 -0.000238 0.000060 82.800697 -36.627785 -18.221720 139.999924
26 139.999924 -0.000238 0.000060 69.677635 -47.452461 -5.864156 139.999924
[Rope3_Seg06]
25 139.999893 -0.000119 -0.000060 36.715317 -18.429831 25.784260 139.999893
26 139.999893 -0.000119 -0.000060 17.219975 -9.624195 18.916328 139.999893
[Rope3_Seg07]
25 139.999771 0.000060 -0.000119 4.586718 1.238840 10.152315 139.999771
26 139.999771 0.000060 -0.000119 4.127451 -0.804753 7.639440 139.999771
[Rope3_Seg08]
25 139.999985 -0.000060 0.000000 1.882287 0.954152 4.698041 139.999985
26 139.999985 -0.000060 0.000000 1.962245 -0.122142 3.759507 139.999985
[Rope3_Seg09]
25 90.185997 -0.000179 -0.000060 89.793228 -1.359877 -0.847183 90.185997
26 90.185997 -0.000179 -0.000060 89.793228 -1.359877 -0.847183 90.185997
[R_rear_hand01]
25 103.366196 -6.073594 -10.757982 -169.183289 22.304338 -52.678299 104.101845
26 103.366196 -6.073594 -10.757982 -170.781693 22.979744 -56.828300 104.101845
[R_rear_hand02]
25 100.509819 12.039542 -7.992327 -25.326174 30.360598 49.900978 101.543350
26 100.509819 12.039542 -7.992327 -23.183100 31.959585 54.045399 101.543350
[R_rear_hand03]
25 101.539970 5.215704 5.435467 80.575394 -52.733402 11.389222 101.819031
26 101.539970 5.215704 5.435467 79.632996 -56.564884 12.543688 101.819031
[Rope4_Seg01]
25 0.000010 0.000022 -0.000086 43.662743 -33.448654 -87.663300 0.000089
26 0.000010 0.000021 -0.000083 46.671982 -37.072670 -92.882896 0.000086
[Rope4_Seg02]
25 139.999985 0.000060 0.000119 0.862675 -23.758785 4.633107 139.999985
26 139.999985 0.000060 0.000119 2.229237 -23.375557 3.986750 139.999985
[Rope4_Seg03]
25 139.999924 0.000000 -0.000238 12.375917 -35.077145 7.551371 139.999924
26 139.999924 0.000000 -0.000238 16.646578 -36.091728 7.610362 139.999924
[Rope4_Seg04]
25 139.999985 0.000000 0.000119 21.168407 -19.938143 9.615979 139.999985
26 139.999985 0.000000 0.000119 27.670666 -20.234377 11.578304 139.999985
[Rope4_Seg05]
25 139.999802 -0.000060 -0.000119 26.138031 -10.584401 17.085745 139.999802
26 139.999802 -0.000060 -0.000119 23.662230 -5.496062 16.912628 139.999802
[Rope4_Seg06]
25 139.999924 0.000000 0.000060 16.387800 -0.442517 16.924023 139.999924
26 139.999924 0.000000 0.000060 12.622918 2.953196 14.841653 139.999924
[Rope4_Seg07]
25 139.999802 0.000000 0.000000 5.552596 1.723151 7.677332 139.999802
26 139.999802 0.000000 0.000000 4.606158 2.636312 7.246713 139.999802
[Rope4_Seg08]
25 139.999924 0.000000 0.000119 0.896465 1.262375 3.954383 139.999924
26 139.999924 0.000000 0.000119 0.509118 1.701787 3.843305 139.999924
[Rope4_Seg09]
25 90.185791 0.000060 0.000060 -135.617828 2.228885 0.850567 90.185791
26 90.185791 0.000060 0.000060 -135.617828 2.228885 0.850567 90.185791
[L_rear_hand01]
25 101.696655 -8.392275 -7.654577 -17.798229 -35.006115 116.214783 102.329041
26 101.696655 -8.392275 -7.654577 -16.229376 -35.681824 113.503792 102.329041
[L_rear_hand02]
25 102.726799 -1.568258 5.773216 76.414986 65.052948 163.777969 102.900848
26 102.726799 -1.568258 5.773216 75.121277 67.292465 162.363373 102.900848
[L_rear_hand03]
25 104.552910 9.721220 -10.420293 -174.535919 -24.090160 -113.787468 105.519653
26 104.552910 9.721220 -10.420293 -175.569031 -24.291683 -111.264931 105.519653
